<?xml version="1.0" encoding="utf-8" ?>
<svg baseProfile="full" height="1024" version="1.1" width="1024" xmlns="http://www.w3.org/2000/svg" xmlns:ev="http://www.w3.org/2001/xml-events" xmlns:xlink="http://www.w3.org/1999/xlink"><defs /><polygon fill="black" points="201,716" /><polygon fill="black" points="570,697" /><polygon fill="black" points="534,697" /><polygon fill="black" points="509,697" /><polygon fill="black" points="479,688" /><polygon fill="black" points="704,647" /><polygon fill="black" points="704,644" /><polygon fill="black" points="704,637" /><polygon fill="black" points="704,630" /><polygon fill="black" points="810,628 810,739 815,739 816,740 875,740 876,739 877,739 878,740 878,717 835,717 834,716 834,628" /><polygon fill="black" points="725,628 724,629 724,640 725,641 724,642 724,644 725,645 724,646 725,647 725,649 724,650 724,652 725,653 725,654 724,655 724,663 725,664 724,665 725,666 724,667 725,668 725,669 724,670 725,671 725,673 724,674 725,675 725,680 724,681 724,685 725,686 725,687 724,688 724,690 725,691 725,692 724,693 724,694 725,695 725,698 724,699 725,700 724,701 724,703 725,704 725,705 724,706 725,707 725,713 724,714 725,715 724,716 724,717 725,718 725,722 724,723 724,724 725,725 725,734 724,735 724,736 725,737 724,738 724,739 792,739 792,719 793,718 792,717 749,717 748,716 749,715 749,632 748,631 749,630 749,629 748,628" /><polygon fill="black" points="630,628 630,739 703,739 703,717 660,717 659,718 658,718 657,717 656,718 655,718 654,717 654,695 655,694 697,694 697,673 655,673 654,672 654,651 655,650 702,650 702,628" /><polygon fill="black" points="466,628 466,629 467,630 467,633 468,634 468,637 469,638 469,641 470,642 470,645 471,646 471,649 472,650 472,653 473,654 473,657 474,658 474,661 475,662 475,665 476,666 476,669 477,670 477,673 478,674 478,677 479,678 479,681 480,682 480,685 481,686 481,689 482,690 482,693 483,694 483,697 484,698 484,701 485,702 485,705 486,706 486,709 487,710 487,713 488,714 488,717 489,718 489,721 490,722 490,725 491,726 491,729 492,730 492,733 493,734 493,737 494,738 494,739 520,739 521,738 521,735 522,734 522,731 523,730 523,727 524,726 524,724 525,723 525,720 526,719 526,717 527,716 527,713 528,712 528,709 529,708 529,706 530,705 530,702 531,701 531,698 532,697 532,695 533,694 533,691 534,690 534,687 535,686 535,683 536,682 536,679 537,678 537,676 538,675 538,671 539,670 540,671 540,673 541,674 541,677 542,678 542,680 543,681 543,684 544,685 544,688 545,689 545,691 546,692 546,695 547,696 547,699 548,700 548,703 549,704 549,706 550,707 550,710 551,711 551,714 552,715 552,717 553,718 553,721 554,722 554,724 555,725 555,728 556,729 556,732 557,733 557,735 558,736 558,739 585,739 585,737 586,736 586,733 587,732 587,729 588,728 588,726 589,725 589,721 590,720 590,717 591,716 591,713 592,712 592,709 593,708 593,705 594,704 594,701 595,700 595,697 596,696 596,693 597,692 597,689 598,688 598,685 599,684 599,681 600,680 600,677 601,676 601,673 602,672 602,669 603,668 603,665 604,664 604,661 605,660 605,657 606,656 606,653 607,652 607,649 608,648 608,645 609,644 609,641 610,640 610,637 611,636 611,633 612,632 612,628 588,628 587,629 587,632 586,633 586,637 585,638 585,641 584,642 584,646 583,647 583,651 582,652 582,655 581,656 581,660 580,661 580,664 579,665 579,668 578,669 578,672 577,673 577,677 576,678 576,682 575,683 575,686 574,687 574,691 573,692 573,695 572,696 572,699 571,700 571,704 570,705 569,704 569,701 568,700 568,698 567,697 567,693 566,692 566,689 565,688 565,685 564,684 564,681 563,680 563,677 562,676 562,672 561,671 561,668 560,667 560,664 559,663 559,660 558,659 558,656 557,655 557,651 556,650 556,647 555,646 555,643 554,642 554,639 553,638 553,635 552,634 552,631 551,630 551,628 528,628 528,630 527,631 527,634 526,635 526,638 525,639 525,642 524,643 524,647 523,648 523,651 522,652 522,655 521,656 521,659 520,660 520,663 519,664 519,667 518,668 518,671 517,672 517,675 516,676 516,679 515,680 515,684 514,685 514,687 513,688 513,691 512,692 512,696 511,697 511,699 510,700 510,704 509,705 508,704 508,701 507,700 507,696 506,695 506,692 505,691 505,687 504,686 504,683 503,682 503,678 502,677 502,673 501,672 501,669 500,668 500,665 499,664 499,660 498,659 498,656 497,655 497,651 496,650 496,647 495,646 495,642 494,641 494,637 493,636 493,633 492,632 492,629 491,628" /><polygon fill="black" points="369,628 368,629 369,630 369,637 368,638 369,639 369,660 368,661 369,662 369,672 368,673 368,699 369,700 368,701 368,702 369,703 368,704 368,718 369,719 368,720 368,724 369,725 369,727 368,728 368,735 369,736 369,737 368,738 369,739 392,739 392,702 393,701 406,701 407,702 407,703 409,705 409,706 410,707 410,708 412,710 412,711 413,712 413,713 415,715 415,716 416,717 416,718 418,720 418,721 419,722 419,723 421,725 421,726 422,727 422,728 424,730 424,731 425,732 425,733 427,735 427,736 428,737 428,738 429,739 457,739 455,737 455,736 453,734 453,733 452,732 452,731 450,729 450,728 449,727 449,726 447,724 447,723 445,721 445,720 444,719 444,718 442,716 442,715 440,713 440,712 439,711 439,710 437,708 437,707 435,705 435,704 434,703 434,702 432,700 432,699 431,698 433,696 434,696 435,695 436,695 437,694 438,694 441,691 442,691 445,688 445,687 448,684 448,683 449,682 449,681 450,680 450,679 451,678 451,676 452,675 452,671 453,670 453,659 452,658 452,654 451,653 451,651 450,650 450,649 449,648 449,647 448,646 448,645 446,643 446,642 439,635 438,635 436,633 435,633 434,632 433,632 432,631 431,631 430,630 427,630 426,629 423,629 422,628" /><polygon fill="black" points="287,628 287,630 286,631 286,633 285,634 285,635 284,636 284,638 283,639 283,641 282,642 282,644 281,645 281,647 280,648 280,649 279,650 279,652 278,653 278,655 277,656 277,658 276,659 276,661 275,662 275,663 274,664 274,666 273,667 273,669 272,670 272,672 271,673 271,675 270,676 270,677 269,678 269,680 268,681 268,683 267,684 267,686 266,687 266,688 265,689 265,691 264,692 264,694 263,695 263,697 262,698 262,700 261,701 261,703 260,704 260,705 259,706 259,708 258,709 258,711 257,712 257,714 256,715 256,716 255,717 255,719 254,720 254,722 253,723 253,725 252,726 252,728 251,729 251,730 250,731 250,733 249,734 249,736 248,737 248,738 247,739 274,739 274,736 275,735 275,733 276,732 276,730 277,729 277,727 278,726 278,724 279,723 279,721 280,720 280,718 282,716 321,716 323,718 323,720 324,721 324,723 325,724 325,726 326,727 326,729 327,730 327,732 328,733 328,735 329,736 329,738 330,739 355,739 355,738 354,737 354,735 353,734 353,733 352,732 352,730 351,729 351,727 350,726 350,725 349,724 349,722 348,721 348,719 347,718 347,716 346,715 346,713 345,712 345,711 344,710 344,708 343,707 343,705 342,704 342,702 341,701 341,700 340,699 340,697 339,696 339,694 338,693 338,691 337,690 337,689 336,688 336,686 335,685 335,683 334,682 334,680 333,679 333,678 332,677 332,675 331,674 331,672 330,671 330,669 329,668 329,666 328,665 328,664 327,663 327,661 326,660 326,658 325,657 325,655 324,654 324,653 323,652 323,650 322,649 322,647 321,646 321,644 320,643 320,642 319,641 319,639 318,638 318,636 317,635 317,634 316,633 316,631 315,630 315,628" /><polygon fill="black" points="191,627 190,628 185,628 184,629 181,629 180,630 178,630 177,631 176,631 175,632 174,632 173,633 172,633 171,634 170,634 168,636 167,636 164,639 163,639 158,644 158,645 154,649 154,650 152,652 152,653 151,654 151,655 150,656 150,657 149,658 149,659 148,660 148,662 147,663 147,664 146,665 146,668 145,669 145,672 144,673 144,694 145,695 145,699 146,700 146,702 147,703 147,706 148,707 148,708 149,709 149,710 150,711 150,712 151,713 151,714 152,715 152,716 153,717 153,718 155,720 155,721 165,731 166,731 168,733 169,733 170,734 171,734 172,735 173,735 174,736 175,736 176,737 177,737 178,738 180,738 181,739 184,739 185,740 208,740 209,739 213,739 214,738 216,738 217,737 219,737 220,736 221,736 222,735 223,735 225,733 226,733 228,731 229,731 237,723 237,722 239,720 239,719 241,717 241,716 242,715 242,714 243,713 243,712 244,711 244,709 245,708 245,704 222,704 221,705 221,706 219,708 219,709 214,714 213,714 211,716 209,716 208,717 206,717 205,718 201,718 200,719 197,719 196,718 191,718 190,717 188,717 187,716 185,716 183,714 182,714 180,712 179,712 176,709 176,708 173,705 173,704 172,703 172,702 171,701 171,699 170,698 170,696 169,695 169,690 168,689 168,677 169,676 169,672 170,671 170,669 171,668 171,667 172,666 172,664 174,662 174,661 181,654 182,654 184,652 185,652 186,651 188,651 189,650 193,650 194,649 202,649 203,650 206,650 207,651 209,651 210,652 211,652 214,655 215,655 217,657 217,658 219,660 219,661 220,662 220,663 221,664 245,664 245,661 244,660 244,658 243,657 243,656 242,655 242,654 241,653 241,652 239,650 239,649 237,647 237,646 226,635 225,635 223,633 222,633 221,632 220,632 219,631 218,631 217,630 215,630 214,629 211,629 210,628 205,628 204,627" /><polygon fill="black" points="536,591" /><polygon fill="black" points="699,575" /><polygon fill="black" points="460,481" /><polygon fill="black" points="440,457" /><polygon fill="black" points="469,455 468,456 460,456 459,457 452,457 451,458 445,458 444,459 438,459 437,460 432,460 431,461 426,461 425,462 420,462 419,463 414,463 413,464 408,464 407,465 402,465 401,466 396,466 395,467 391,467 390,468 385,468 384,469 381,469 380,470 379,470 380,470 383,473 384,473 386,475 387,475 388,476 389,476 391,478 392,478 393,479 394,479 395,480 396,480 397,481 400,481 401,482 409,482 410,483 430,483 431,482 441,482 442,481 449,481 450,480 455,480 456,479 459,479 460,478 463,478 464,477 465,477 471,471 471,470 473,468 473,467 475,465 475,464 477,462 477,461 478,460 478,459 479,458 479,457 480,456 480,455" /><polygon fill="black" points="447,440" /><polygon fill="black" points="706,382" /><polygon fill="black" points="703,381" /><polygon fill="black" points="689,375" /><polygon fill="black" points="643,365" /><polygon fill="black" points="641,365" /><polygon fill="black" points="531,345 530,346 516,346 515,347 505,347 504,348 496,348 495,349 489,349 488,350 483,350 482,351 478,351 477,352 474,352 473,353 470,353 469,354 467,354 466,355 463,355 462,356 460,356 459,357 458,357 457,358 455,358 454,359 452,359 451,360 450,360 449,361 448,361 447,362 445,362 444,363 443,363 442,364 441,364 440,365 439,365 438,366 437,366 436,367 435,367 434,368 433,368 432,369 431,369 430,370 429,370 428,371 427,371 426,372 425,372 424,373 423,373 421,375 420,375 419,376 418,376 417,377 416,377 415,378 414,378 412,380 411,380 410,381 409,381 408,382 407,382 405,384 404,384 403,385 402,385 400,387 399,387 398,388 397,388 396,389 395,389 393,391 392,391 391,392 390,392 389,393 388,393 386,395 385,395 384,396 383,396 381,398 380,398 378,400 377,400 376,401 375,401 373,403 372,403 371,404 370,404 368,406 367,406 365,408 364,408 363,409 359,409 358,410 338,410 337,411 325,411 324,412 316,412 315,413 308,413 307,414 302,414 301,415 297,415 296,416 293,416 292,417 290,417 289,418 286,418 285,419 283,419 282,420 280,420 279,421 278,421 277,422 275,422 274,423 273,423 272,424 270,424 269,425 268,425 267,426 266,426 265,427 264,427 263,428 262,428 260,430 259,430 257,432 256,432 254,434 253,434 250,437 249,437 243,443 243,444 241,446 241,452 244,455 245,455 246,456 248,456 249,457 253,457 254,458 260,458 261,459 274,459 275,460 321,460 322,461 341,461 342,460 363,460 364,459 368,459 369,458 371,458 372,457 374,457 375,456 377,456 378,455 380,455 381,454 383,454 384,453 387,453 388,452 390,452 391,451 393,451 394,450 396,450 397,449 400,449 401,448 403,448 404,447 407,447 408,446 411,446 412,445 415,445 416,444 419,444 420,443 423,443 424,442 428,442 429,441 433,441 434,440 438,440 439,439 443,439 444,438 448,438 449,437 453,437 454,436 459,436 460,435 463,435 464,434 468,434 469,433 474,433 475,432 479,432 480,431 485,431 486,430 490,430 491,429 496,429 497,428 501,428 502,427 507,427 508,426 513,426 514,425 519,425 520,424 525,424 526,423 531,423 532,422 538,422 539,421 546,421 547,420 553,420 554,419 561,419 562,418 568,418 571,415 572,415 573,414 573,413 583,403 583,402 590,395 590,394 599,385 599,384 611,372 612,372 615,369 616,369 618,367 619,367 620,366 621,366 622,365 624,365 625,364 628,364 629,363 636,363 637,362 642,362 643,363 653,363 654,364 659,364 660,365 664,365 665,366 669,366 670,367 673,367 674,368 677,368 678,369 680,369 681,370 684,370 685,371 686,371 687,372 689,372 690,373 692,373 693,374 694,374 695,375 697,375 698,376 699,376 700,377 701,377 702,378 704,378 705,379 706,379 707,380 708,380 709,381 710,381 711,382 712,382 714,384 715,384 716,385 717,385 718,386 719,386 721,388 722,388 723,389 724,389 726,391 725,392 724,392 723,391 722,391 721,390 720,390 719,389 717,389 716,388 715,388 714,387 712,387 711,386 709,386 708,385 707,385 706,384 704,384 703,383 701,383 700,382 698,382 697,381 694,381 693,380 691,380 690,379 687,379 686,378 683,378 682,377 678,377 677,376 673,376 672,375 666,375 665,374 652,374 651,373 646,373 645,374 637,374 636,375 633,375 632,376 631,376 630,377 628,377 626,379 625,379 624,380 623,380 621,382 620,382 615,387 614,387 607,394 607,395 600,402 600,403 596,407 596,408 593,411 593,412 591,414 591,415 590,416 590,418 591,418 592,417 596,417 597,416 602,416 603,415 608,415 609,414 613,414 614,413 619,413 620,412 625,412 626,411 645,411 646,412 647,412 650,415 650,418 649,419 649,420 647,422 646,422 644,424 642,424 641,425 636,425 635,426 629,426 628,427 622,427 621,428 614,428 613,429 607,429 606,430 599,430 598,431 590,431 589,432 582,432 581,433 574,433 573,434 564,434 563,435 555,435 554,436 547,436 546,437 540,437 539,438 534,438 533,439 530,439 529,440 527,440 526,441 523,441 522,442 520,442 519,443 518,443 517,444 515,444 514,445 513,445 512,446 511,446 510,447 508,447 506,449 505,449 504,450 503,450 501,452 500,452 499,453 498,453 495,456 494,456 485,465 485,466 482,469 482,470 479,473 479,474 477,476 477,477 469,485 468,485 467,486 466,486 465,487 463,487 462,488 456,488 455,489 444,489 443,490 423,490 422,491 399,491 398,490 395,490 394,489 393,489 392,488 391,488 390,487 389,487 387,485 386,485 385,484 384,484 382,482 381,482 378,479 377,479 375,477 374,477 369,472 368,472 363,467 350,467 349,468 291,468 290,467 271,467 270,466 256,466 255,465 248,465 247,464 241,464 241,471 242,472 242,477 243,478 243,481 244,482 244,485 245,486 245,487 244,488 242,486 242,485 240,483 240,482 239,481 239,480 238,479 238,478 237,477 237,475 236,474 236,473 235,472 235,469 234,468 234,465 233,464 233,461 231,461 230,462 230,463 229,464 229,465 228,466 228,468 227,469 227,470 226,471 226,472 225,473 225,475 224,476 224,478 223,479 223,481 222,482 222,484 221,485 221,490 220,491 220,501 221,502 221,510 222,511 222,516 223,517 223,521 224,522 224,525 223,526 223,527 221,529 221,530 220,531 220,532 219,533 219,538 223,542 224,542 225,543 226,543 227,544 228,544 229,545 231,545 232,546 234,546 235,547 238,547 239,548 242,548 243,549 246,549 247,550 250,550 251,551 253,551 255,553 255,554 259,558 259,559 264,564 265,564 269,568 270,568 272,570 273,570 274,571 273,572 262,572 261,573 251,573 250,574 240,574 239,575 231,575 230,576 226,576 225,577 223,577 223,578 228,578 229,579 238,579 239,580 250,580 251,581 264,581 265,582 279,582 280,583 294,583 295,584 311,584 312,585 332,585 333,586 353,586 354,587 377,587 378,588 397,588 398,589 419,589 420,590 444,590 445,591 511,591 512,590 527,590 528,589 540,589 541,588 551,588 552,587 562,587 563,586 572,586 573,585 583,585 584,584 594,584 595,583 604,583 605,582 614,582 615,581 625,581 626,580 635,580 636,579 645,579 646,578 655,578 656,577 664,577 665,576 675,576 676,575 683,575 684,574 693,574 694,573 702,573 703,572 711,572 712,571 721,571 722,570 731,570 732,569 740,569 741,568 749,568 750,567 758,567 759,566 768,566 769,565 777,565 778,564 786,564 787,563 794,563 795,562 801,562 802,561 805,561 806,560 804,560 803,559 784,559 783,558 770,558 769,557 773,553 773,552 775,550 775,549 776,548 776,547 777,546 777,545 778,544 778,543 779,542 779,541 780,540 780,538 781,537 781,535 782,534 782,531 783,530 783,526 784,525 784,516 785,515 786,516 786,521 787,520 788,520 791,517 792,517 794,515 794,514 797,511 797,510 799,508 799,507 800,506 800,505 801,504 801,503 802,502 802,499 803,498 803,496 804,495 804,490 805,489 805,472 804,471 804,464 803,463 803,457 802,456 802,451 801,450 801,446 800,445 800,442 799,441 799,439 798,438 798,436 797,435 797,433 796,432 796,431 795,430 795,429 794,428 794,427 793,426 793,425 789,421 789,420 787,418 786,418 783,415 782,415 780,413 779,413 777,411 776,411 775,410 774,410 773,409 772,409 769,406 768,406 763,401 762,401 758,397 757,397 755,395 754,395 751,392 750,392 747,389 746,389 744,387 743,387 741,385 740,385 739,384 738,384 736,382 735,382 733,380 732,380 731,379 730,379 728,377 727,377 726,376 725,376 724,375 723,375 722,374 721,374 720,373 719,373 718,372 717,372 716,371 715,371 714,370 713,370 712,369 711,369 710,368 709,368 708,367 707,367 706,366 705,366 704,365 702,365 701,364 700,364 699,363 697,363 696,362 695,362 694,361 692,361 691,360 689,360 688,359 686,359 685,358 683,358 682,357 679,357 678,356 675,356 674,355 671,355 670,354 667,354 666,353 662,353 661,352 658,352 657,351 652,351 651,350 646,350 645,349 639,349 638,348 631,348 630,347 621,347 620,346 606,346 605,345" /><polygon fill="black" points="727,300 727,305 726,306 726,309 725,310 725,312 724,313 724,314 723,315 723,316 717,322 716,322 715,323 714,323 713,324 712,324 711,325 708,325 707,326 703,326 703,327 707,327 708,328 711,328 712,329 714,329 715,330 716,330 719,333 720,333 721,334 721,335 723,337 723,338 724,339 724,340 725,341 725,343 726,344 726,346 727,347 727,352 728,352 728,347 729,346 729,344 730,343 730,341 731,340 731,339 732,338 732,337 734,335 734,334 735,333 736,333 739,330 740,330 741,329 743,329 744,328 747,328 748,327 752,327 752,326 747,326 746,325 744,325 743,324 741,324 740,323 739,323 736,320 735,320 734,319 734,318 731,315 731,314 730,313 730,311 729,310 729,307 728,306 728,301" /><polygon fill="black" points="667,255 667,260 666,261 666,265 665,266 665,268 664,269 664,270 663,271 663,272 662,273 662,274 660,276 660,277 656,281 655,281 653,283 652,283 651,284 650,284 649,285 647,285 646,286 645,286 644,287 640,287 639,288 635,288 635,289 640,289 641,290 645,290 646,291 648,291 649,292 651,292 652,293 653,293 655,295 656,295 661,300 661,301 662,302 662,303 663,304 663,305 664,306 664,307 665,308 665,311 666,312 666,316 667,317 667,322 668,322 668,317 669,316 669,313 670,312 670,310 671,309 671,307 672,306 672,305 673,304 673,303 674,302 674,301 681,294 682,294 683,293 684,293 685,292 687,292 688,291 690,291 691,290 694,290 695,289 700,289 701,288 696,288 695,287 692,287 691,286 689,286 688,285 686,285 685,284 684,284 683,283 682,283 680,281 679,281 675,277 675,276 673,274 673,273 672,272 672,271 671,270 671,268 670,267 670,265 669,264 669,260 668,259 668,255" /></svg>